<svg width="19" height="23" viewBox="0 0 19 23" fill="none" xmlns="http://www.w3.org/2000/svg">
<rect width="19" height="23" fill="#E5E5E5"/>
<g clip-path="url(#clip0)">
<rect width="1440" height="6925" transform="translate(-878 -1046)" fill="white"/>
<path d="M9.30087 5.17529C11.5022 5.17529 13.2868 6.91297 13.2868 9.05649C13.2868 11.2 11.5022 12.9377 9.30087 12.9377C7.0995 12.9377 5.31494 11.2 5.31494 9.05649C5.31494 6.91297 7.0995 5.17529 9.30087 5.17529ZM9.30087 6.61277C7.97296 6.61277 6.86503 7.6916 6.86503 9.05649C6.86503 10.4214 7.97296 11.5002 9.30087 11.5002C10.6288 11.5002 11.7367 10.4214 11.7367 9.05649C11.7367 7.6916 10.6288 6.61277 9.30087 6.61277Z" fill="url(#paint0_linear)"/>
<path d="M9.30051 0C14.437 0 18.601 4.25154 18.601 9.49608C18.601 14.7406 9.30051 23.0982 9.30051 22.9991L9.26029 22.9526C8.59884 22.2768 0 14.5389 0 9.49608C0 4.25154 4.16398 0 9.30051 0ZM8.97712 20.6008L9.34129 20.9579L9.62965 20.6787L10.254 20.0582C11.0906 19.2122 11.938 18.2964 12.7339 17.361C15.4271 14.1958 17.0509 11.366 17.0509 9.49608C17.0509 5.01623 13.5459 1.43749 9.30051 1.43749C5.05512 1.43749 1.55008 5.01623 1.55008 9.49608C1.55008 10.506 2.03918 11.836 2.97265 13.3845C3.70844 14.6051 4.6905 15.9164 5.86285 17.2817C6.59686 18.1365 7.36659 18.9689 8.16687 19.7871L8.97712 20.6008Z" fill="url(#paint1_linear)"/>
</g>
<defs>
<linearGradient id="paint0_linear" x1="5.31494" y1="12.9377" x2="13.0746" y2="4.96865" gradientUnits="userSpaceOnUse">
<stop stop-color="#009EDB"/>
<stop offset="0.494792" stop-color="#5E419A"/>
<stop offset="1" stop-color="#991F68"/>
</linearGradient>
<linearGradient id="paint1_linear" x1="0" y1="23" x2="22.4913" y2="4.81036" gradientUnits="userSpaceOnUse">
<stop stop-color="#009EDB"/>
<stop offset="0.494792" stop-color="#5E419A"/>
<stop offset="1" stop-color="#991F68"/>
</linearGradient>
<clipPath id="clip0">
<rect width="1440" height="6925" fill="white" transform="translate(-878 -1046)"/>
</clipPath>
</defs>
</svg>
